<svg width="151" height="50" viewBox="0 0 151 50" fill="none" xmlns="http://www.w3.org/2000/svg">
<path d="M44.6129 20.397H25.7849C24.3567 20.3986 22.9874 20.9667 21.9775 21.9766C20.9676 22.9865 20.3995 24.3558 20.3979 25.784V36.014L15.5199 39.498C15.3302 39.6336 15.1756 39.8124 15.0689 40.0197C14.9623 40.2271 14.9066 40.4569 14.9066 40.69C14.9066 40.9232 14.9623 41.153 15.0689 41.3603C15.1756 41.5676 15.3302 41.7465 15.5199 41.882L20.4569 45.408C20.65 46.6837 21.2934 47.8481 22.2708 48.6905C23.2481 49.5328 24.4947 49.9974 25.7849 50H44.6129C46.0412 49.9984 47.4104 49.4304 48.4204 48.4204C49.4303 47.4105 49.9984 46.0413 49.9999 44.613V25.784C49.9984 24.3558 49.4303 22.9865 48.4204 21.9766C47.4104 20.9667 46.0412 20.3986 44.6129 20.397ZM36.4789 38.58V41.696H33.9229V29.603H36.4839L36.4789 38.58Z" fill="#1E4597"/>
<path d="M34.48 8.11801L29.543 4.59201C29.3499 3.31631 28.7065 2.15189 27.7292 1.30957C26.7518 0.467246 25.5052 0.00267822 24.215 0H5.38699C3.95867 0.00185271 2.58938 0.570157 1.5795 1.58023C0.569612 2.5903 0.00158759 3.95967 0 5.388V24.216C0.0015881 25.6442 0.569645 27.0135 1.57956 28.0234C2.58947 29.0334 3.95876 29.6014 5.38699 29.603H17.51V25.282C17.5124 23.1987 18.341 21.2014 19.8142 19.7282C21.2873 18.2551 23.2847 17.4264 25.368 17.424H29.603V13.987L34.481 10.502C34.6707 10.3665 34.8253 10.1876 34.932 9.98029C35.0387 9.77296 35.0943 9.54315 35.0943 9.31C35.0943 9.07684 35.0387 8.84706 34.932 8.63974C34.8253 8.43242 34.6707 8.25356 34.481 8.11801H34.48ZM17.557 17.482L14.757 11.471L11.928 17.538L10.396 20.823H7.10899L13.642 6.81702H15.874L19.962 15.581C19.0379 16.0417 18.2193 16.689 17.558 17.482H17.557Z" fill="#E50033"/>
<path d="M86.772 12.739H83.755V28.861H86.772V12.739Z" fill="#555555"/>
<path d="M105.326 21.998C105.326 24.762 103.898 26.443 101.388 26.443C98.878 26.443 97.219 24.9 97.219 21.998V12.762H94.202V21.998C94.202 26.857 97.495 29.207 101.365 29.207C105.418 29.207 108.343 26.766 108.343 21.998V12.762H105.326V21.998Z" fill="#555555"/>
<path d="M114.541 15.503H119.654V28.861H122.694V15.503H127.807V12.739H114.541V15.503Z" fill="#555555"/>
<path d="M68.1051 12.739L60.873 28.861H64.1631L65.5451 25.821L66.7761 22.988H66.7651L69.7591 16.125L72.7531 22.988H72.7421L73.9731 25.821L75.3321 28.861H78.6481L71.4161 12.739H68.1051Z" fill="#555555"/>
<path d="M140.26 12.74L133.028 28.862H136.322L137.704 25.822L138.935 22.989H138.924L141.918 16.126L144.912 22.989H144.901L146.132 25.822L147.491 28.862H150.807L143.575 12.74H140.26Z" fill="#555555"/>
</svg>
