<svg width="181" height="180" viewBox="0 0 181 180" fill="none" xmlns="http://www.w3.org/2000/svg">
<path d="M180.815 87.3738L176.613 79.2173C174.883 75.8187 174.759 75.3244 174.697 74.8301C174.45 73.4706 175.068 69.5778 175.068 69.5778L176.304 61.9156C176.366 61.3594 175.995 60.1236 175.562 59.7528L169.074 53.3265C166.355 50.6076 166.108 50.1751 165.861 49.6807C165.305 48.5685 164.687 45.1699 164.563 44.552L163.389 36.9516C163.328 36.3955 162.524 35.345 162.03 35.0978L153.812 30.9578C150.413 29.2276 150.042 28.9186 149.672 28.5479C148.683 27.621 146.953 24.1607 146.891 24.0989L143.369 17.1782C143.122 16.6838 142.071 15.9423 141.515 15.8187L132.493 14.3975C128.724 13.8414 128.168 13.5324 127.859 13.4089C126.561 12.7909 123.719 10.0103 123.719 9.94851L118.281 4.51082C117.972 4.20186 117.045 3.76931 116.119 3.76931L107.035 5.25232C105.861 5.43769 103.698 5.74665 102.895 5.74665H102.586L102.339 5.68486C100.979 5.49948 97.4573 3.70752 97.3955 3.70752L90.4748 0.185378C90.3513 0.123586 89.9805 0 89.3626 0C88.7446 0 88.3121 0.123586 88.1885 0.185378L80.032 4.38723C76.6334 6.1792 76.0773 6.24099 75.6448 6.30278L75.1504 6.36457H74.7797C74.0382 6.36457 72.0608 6.24099 70.3306 5.93203L62.5449 4.69619C61.8034 4.69619 60.8147 5.12874 60.5057 5.4377L54.0793 11.9259C51.3605 14.6447 50.8662 14.8919 50.4954 15.139C49.3832 15.757 45.9846 16.3131 45.3667 16.4367L37.7663 17.6107C37.2101 17.6725 36.1597 18.4758 35.9125 18.9701L31.7106 27.1885C29.9805 30.6488 29.6715 30.9578 29.3626 31.2667C28.4357 32.2554 24.9135 34.0474 24.9135 34.0474L17.9928 37.5695C17.4985 37.8167 16.6952 38.8671 16.6334 39.4233L15.2122 48.4449C14.5943 52.276 14.3471 52.7703 14.2235 53.0175C13.6056 54.3769 10.7632 57.2194 10.7632 57.2194L5.32548 62.6571C4.95473 63.0278 4.52218 64.3254 4.58397 64.8816L6.06698 73.965C6.6849 77.7343 6.62311 78.2286 6.56132 78.6612C6.37595 80.0206 4.58397 83.5427 4.58397 83.6045L1.06184 90.5252C0.814673 91.0196 0.814673 92.3172 1.06184 92.8115L5.26369 100.968C7.05565 104.428 7.11745 104.923 7.17924 105.355C7.42641 106.653 6.80849 110.546 6.80849 110.608L5.57265 118.208C5.51086 118.764 5.88161 120 6.31416 120.371L12.8023 126.797C15.5212 129.516 15.8301 130.01 16.0155 130.381C16.6952 131.617 17.3131 135.51 17.3131 135.572L18.4872 143.172C18.549 143.728 19.3522 144.779 19.8466 145.026L28.0649 149.166C31.5253 150.896 31.8342 151.267 32.1432 151.514C33.1319 152.441 34.9238 155.963 34.9238 155.963L38.446 162.884C38.6932 163.378 39.7436 164.181 40.2997 164.243L49.3214 165.664C53.0907 166.22 53.6468 166.468 54.0176 166.653C55.3152 167.271 58.1576 170.051 58.1576 170.113L63.5953 175.551C63.9043 175.86 64.8312 176.231 65.758 176.231L74.8414 174.748C76.0773 174.562 78.1782 174.253 78.9815 174.253H79.2905L79.5377 174.315C80.9589 174.501 84.4192 176.292 84.481 176.292L91.4017 179.815C91.5871 179.876 91.9578 180 92.5757 180C93.1319 180 93.5644 179.876 93.7498 179.815L101.968 175.613C105.367 173.883 105.861 173.759 106.355 173.697L106.788 173.635H107.097C107.838 173.635 109.816 173.759 111.546 174.068L119.332 175.304C120.073 175.304 121.062 174.871 121.371 174.562L127.797 168.074C130.516 165.355 131.01 165.108 131.381 164.923C132.617 164.243 136.51 163.625 136.572 163.625L144.172 162.451C144.728 162.389 145.779 161.586 146.026 161.092L150.166 152.873C151.896 149.413 152.205 149.104 152.514 148.795C153.441 147.806 156.963 146.014 156.963 146.014L163.884 142.492C164.378 142.245 165.181 141.195 165.243 140.639L166.664 131.617C167.282 127.848 167.529 127.291 167.653 126.983C168.271 125.685 171.113 122.781 171.113 122.781L176.551 117.343C176.922 116.972 177.354 115.675 177.293 115.18L175.81 106.097C175.192 102.266 175.253 101.833 175.315 101.401C175.501 100.041 177.293 96.519 177.293 96.4573L180.815 89.5366C181.062 89.2276 181.062 87.93 180.815 87.3738ZM180.135 89.3512L176.613 96.2101C176.613 96.2101 174.759 99.8558 174.512 101.401C174.45 101.895 174.388 102.389 175.006 106.344L176.489 115.427C176.551 115.736 176.242 116.725 175.995 116.91L170.557 122.348C170.495 122.41 167.591 125.314 166.911 126.797C166.726 127.168 166.479 127.786 165.861 131.617L164.44 140.639C164.378 140.947 163.76 141.751 163.513 141.936L156.592 145.458C156.53 145.458 152.947 147.312 151.896 148.424C151.525 148.795 151.216 149.166 149.363 152.688L145.161 160.906C145.037 161.153 144.172 161.771 143.925 161.833L136.324 163.007C136.263 163.007 132.308 163.687 130.887 164.428C130.454 164.676 129.898 164.923 127.117 167.765L120.691 174.253C120.568 174.377 119.826 174.686 119.27 174.748L111.546 173.512C109.692 173.203 107.715 173.079 106.911 173.079H106.603H106.541H106.479L105.985 173.141C105.428 173.265 104.872 173.326 101.35 175.118L93.1937 179.32C93.1319 179.32 92.8229 179.444 92.3904 179.444C91.9578 179.444 91.6489 179.382 91.5871 179.32L84.6664 175.736C83.5541 175.18 80.8353 173.883 79.4758 173.697H79.2287H79.1669H79.1051H78.7961C77.9311 173.697 76.0155 174.006 74.4707 174.253C71.5665 174.748 66.067 175.613 65.4491 175.675C64.7694 175.675 64.0279 175.304 63.9043 175.18L58.4666 169.743C58.4666 169.681 55.5624 166.838 54.0793 166.159C53.6468 165.973 53.0289 165.664 49.1978 165.108L40.1762 163.687C39.8672 163.625 39.0639 163.007 38.8785 162.76L35.3564 155.839C35.1092 155.407 33.5026 152.194 32.3904 151.143C32.0196 150.772 31.6489 150.463 28.1267 148.61L19.9084 144.408C19.6612 144.284 19.0433 143.481 18.9815 143.172L17.8075 135.633C17.8075 135.633 17.1277 131.555 16.3862 130.134C16.2009 129.701 15.8919 129.145 13.0495 126.365L6.56132 119.938C6.37595 119.691 6.06698 118.702 6.06698 118.455L7.30282 110.793C7.4264 109.866 7.92074 106.653 7.67357 105.355C7.54999 104.799 7.48821 104.243 5.69624 100.721L1.49437 92.5644C1.37079 92.3172 1.37079 91.2667 1.49437 91.0196L5.01652 84.0989C5.01652 84.0371 6.87028 80.4531 7.05565 78.9083C7.11744 78.414 7.17924 77.8579 6.56132 73.965L5.07832 64.8816C5.01653 64.5726 5.32548 63.5839 5.57265 63.3986L11.0103 57.9609C11.0721 57.9609 13.9764 54.9949 14.6561 53.5118C14.8415 53.1411 15.0886 52.6468 15.7065 48.6921L17.1278 39.6704C17.1895 39.3615 17.8075 38.5582 18.0546 38.3728L24.9753 34.9125C24.9753 34.9125 28.6211 33.0587 29.6715 31.9464C30.0423 31.5757 30.3512 31.2049 32.1432 27.6828L36.345 19.4645C36.4686 19.2173 37.3337 18.5994 37.6427 18.5376L45.2431 17.3635C45.3049 17.3635 49.2596 16.6838 50.619 16.0041C51.1133 15.757 51.6694 15.448 54.4501 12.6674L60.8765 6.1792C61.0001 6.05561 61.7415 5.74665 62.2977 5.68486L70.0217 6.9207C71.8136 7.22966 73.8528 7.35325 74.5943 7.35325H74.965H75.0268H75.0886L75.5829 7.29145C76.0773 7.22966 76.6334 7.10608 80.1556 5.31411L88.3121 1.11226C88.3121 1.11226 88.5593 0.988675 89.1154 0.988675C89.6097 0.988675 89.9187 1.11226 89.9187 1.11226L96.7776 4.6344C96.8394 4.6344 100.423 6.48816 101.968 6.73533H102.215H102.277H102.339H102.648C103.575 6.73533 105.985 6.36457 106.911 6.1792C106.911 6.1792 115.13 4.88156 115.933 4.75798C116.613 4.75798 117.354 5.12873 117.478 5.25232L122.916 10.69C123.595 11.3697 126.005 13.656 127.303 14.2739C127.735 14.4593 128.292 14.7683 132.184 15.3244L141.206 16.7456C141.515 16.8074 142.318 17.4253 142.504 17.6725L146.026 24.5932C146.026 24.655 147.88 28.1771 148.992 29.2894C149.363 29.6602 149.795 30.0309 153.317 31.8229L161.536 35.9629C161.783 36.0865 162.401 36.9516 162.462 37.2606L163.637 44.861C163.637 44.9228 164.316 48.8774 164.996 50.2369C165.305 50.793 165.552 51.2873 168.333 54.068L174.821 60.4943C175.006 60.6797 175.377 61.6684 175.315 61.9773L174.079 69.6395C173.956 70.5664 173.461 73.8414 173.709 75.2008C173.832 75.757 173.894 76.3131 175.686 79.7734L179.888 87.93C180.259 88.0536 180.259 89.104 180.135 89.3512Z" fill="black"/>
<path d="M170.001 75.6952C169.568 73.3471 170.372 68.8363 170.372 68.8363L171.422 62.3481L165.737 56.725C162.833 53.8208 162.277 53.0175 161.659 51.9053C160.609 49.8661 159.991 45.7879 159.867 45.2935L158.878 38.8672L151.711 35.2214C148.127 33.4295 147.323 32.8115 146.458 32.0082C146.087 31.6375 144.975 30.587 142.751 26.2616L139.785 20.3914L131.937 19.1555C127.797 18.5376 126.87 18.1668 125.943 17.7343C124.028 16.8074 121.432 14.3357 120.444 13.3471L115.809 8.71268C113.4 9.08343 107.9 10.0103 107.9 10.0103C104.316 10.6282 103.327 10.6282 102.957 10.6282H102.586L102.03 10.5664L101.721 10.5046C99.3727 10.1957 95.3563 8.09475 95.2327 8.03296L89.3624 5.00516L82.1946 8.65088C78.6724 10.4428 77.622 10.8136 76.3243 11.0608L75.5211 11.1844H74.8413C73.7909 11.1844 71.5046 10.999 69.6508 10.69L63.1627 9.63956L57.5396 15.2626C54.8207 18.0433 53.8321 18.723 52.7198 19.3409C50.6807 20.3914 46.5406 21.0711 46.1081 21.1329L39.6817 22.1215L36.036 29.3512C34.244 32.8733 33.6879 33.6766 32.8846 34.5417C31.2162 36.2719 27.1997 38.2492 27.0761 38.311L21.2059 41.277L19.9701 49.1246C19.3521 53.0793 19.0432 54.1916 18.6106 54.9949C17.5602 57.343 14.1616 60.6179 14.1616 60.6179L9.52722 65.2523L10.8249 73.1617C11.4428 76.9928 11.5046 78.0433 11.3192 79.2173C11.0102 81.5654 9.03288 85.3347 8.8475 85.7673L5.8197 91.6375L9.46542 98.8054C11.2574 102.328 11.6282 103.378 11.8753 104.614C12.2461 106.9 11.5046 111.226 11.5046 111.411L10.4541 117.899L16.0772 123.522C18.8578 126.303 19.5993 127.291 20.0937 128.218C21.2677 130.381 21.9474 134.954 21.9474 134.954L22.9361 141.38L30.104 145.026C33.8115 146.88 34.553 147.497 35.2945 148.177C37.0864 149.846 39.0638 153.986 39.0638 153.986L42.0298 159.856L49.8774 161.092C54.0174 161.71 54.9443 162.08 55.8712 162.513C57.7868 163.44 60.5674 166.097 61.3707 166.9L65.9433 171.535C68.415 171.164 73.8527 170.237 73.8527 170.237C77.2512 169.681 78.3017 169.681 78.9814 169.681C79.0432 169.681 79.5993 169.681 79.5993 169.681L79.9083 169.743C80.4644 169.804 82.071 169.99 86.4582 172.214L92.3285 175.242L99.4963 171.596C103.142 169.743 104.131 169.434 105.49 169.186L105.923 169.125L106.541 169.063H106.85C107.9 169.063 110.186 169.248 112.102 169.557L118.59 170.608L124.213 164.985C126.994 162.142 127.921 161.462 128.909 160.968C131.072 159.794 135.645 159.114 135.645 159.114L142.133 158.126L145.779 150.958C147.632 147.25 148.188 146.509 148.93 145.767C150.413 144.222 153.75 142.492 154.738 141.998L160.609 139.032L161.844 131.184C162.462 127.044 162.833 126.056 163.204 125.314C163.822 123.955 165.305 122.101 167.653 119.691L172.287 115.118L170.99 107.209C170.31 103.131 170.31 102.204 170.495 101.153C170.681 99.6704 171.484 97.5077 172.967 94.6035L175.995 88.7333L172.349 81.5654C170.619 77.9815 170.248 76.931 170.001 75.6952ZM90.969 167.085C48.4562 167.085 13.9762 132.606 13.9762 90.0927C13.9762 47.5798 48.4562 13.0999 90.969 13.0999C133.482 13.0999 167.9 47.5798 167.9 90.0927C167.9 132.606 133.482 167.085 90.969 167.085Z" fill="black"/>
<path d="M96.5304 15.0155L96.0361 14.7683L93.8115 19.5263L94.3059 19.7117L96.5304 15.0155Z" fill="black"/>
<path d="M92.5756 14.8301L92.0813 14.6447L90.1658 19.4645L90.6601 19.6498L92.5756 14.8301Z" fill="black"/>
<path d="M88.6211 14.8301L88.1267 14.6447L86.4584 19.588L86.9527 19.7734L88.6211 14.8301Z" fill="black"/>
<path d="M84.728 15.0773L84.1719 14.8919L82.7507 19.897L83.3068 20.0824L84.728 15.0773Z" fill="black"/>
<path d="M80.7735 15.5098L80.2792 15.3862L79.1051 20.4532L79.5994 20.5768L80.7735 15.5098Z" fill="black"/>
<path d="M76.8806 16.1277L76.3862 16.0042L75.4594 21.1329L76.0155 21.2565L76.8806 16.1277Z" fill="black"/>
<path d="M73.0494 16.9928L72.4933 16.8692L71.8754 22.0598L72.4315 22.1215L73.0494 16.9928Z" fill="black"/>
<path d="M68.7261 17.9677L68.3654 23.1458L68.9201 23.1845L69.2809 18.0064L68.7261 17.9677Z" fill="black"/>
<path d="M65.5109 19.2173H64.9547L64.8929 24.4078H65.3873L65.5109 19.2173Z" fill="black"/>
<path d="M61.9887 25.8909L61.8033 20.6385L61.309 20.7003L61.4943 25.8909H61.9887Z" fill="black"/>
<path d="M58.7136 27.4357L58.2193 22.3069H57.725L58.1575 27.4975L58.7136 27.4357Z" fill="black"/>
<path d="M55.4386 29.2276L54.7589 24.0989L54.2028 24.1607L54.9443 29.2894L55.4386 29.2276Z" fill="black"/>
<path d="M51.3743 26.0556L50.8284 26.1616L51.8182 31.2572L52.3642 31.1511L51.3743 26.0556Z" fill="black"/>
<path d="M49.2595 33.3059L48.0236 28.2389L47.5293 28.3625L48.7651 33.4295L49.2595 33.3059Z" fill="black"/>
<path d="M46.3553 35.5304L44.8723 30.587L44.3162 30.7106L45.861 35.7158L46.3553 35.5304Z" fill="black"/>
<path d="M41.797 33.0602L41.2745 33.2507L43.0523 38.1272L43.5748 37.9367L41.797 33.0602Z" fill="black"/>
<path d="M40.9175 40.4738L38.8784 35.7158L38.384 35.9012L40.4232 40.7209L40.9175 40.4738Z" fill="black"/>
<path d="M38.384 43.1926L36.0978 38.4964L35.6034 38.7435L37.8897 43.4397L38.384 43.1926Z" fill="black"/>
<path d="M35.9743 45.9732L33.5026 41.4624L33.0083 41.7096L35.5418 46.2204L35.9743 45.9732Z" fill="black"/>
<path d="M33.7498 48.9393L31.0309 44.4902L30.5366 44.7992L33.3173 49.2482L33.7498 48.9393Z" fill="black"/>
<path d="M31.7106 51.967L28.6828 47.7034L28.2502 48.0123L31.2163 52.276L31.7106 51.967Z" fill="black"/>
<path d="M29.7952 55.1184L26.582 51.0401L26.1494 51.3491L29.3626 55.4892L29.7952 55.1184Z" fill="black"/>
<path d="M28.0031 58.3934L24.6045 54.4387L24.2338 54.8095L27.6323 58.7641L28.0031 58.3934Z" fill="black"/>
<path d="M26.4583 61.7302L22.8125 57.9608L22.4418 58.3316L26.0875 62.1009L26.4583 61.7302Z" fill="black"/>
<path d="M25.037 65.1287L21.2677 61.6066L20.897 61.9774L24.6663 65.4995L25.037 65.1287Z" fill="black"/>
<path d="M23.8632 68.5891L19.8467 65.2523L19.5377 65.6848L23.4924 69.0216L23.8632 68.5891Z" fill="black"/>
<path d="M22.8126 72.173L18.6725 69.0216L18.3018 69.4542L22.5036 72.6056L22.8126 72.173Z" fill="black"/>
<path d="M21.9474 75.7569L17.6219 72.8527L17.3748 73.2853L21.6384 76.1895L21.9474 75.7569Z" fill="black"/>
<path d="M21.3295 79.4027L16.8187 76.6838L16.5715 77.1782L21.0206 79.8352L21.3295 79.4027Z" fill="black"/>
<path d="M20.8353 83.0484L16.2626 80.5768L16.0155 81.0711L20.5881 83.481L20.8353 83.0484Z" fill="black"/>
<path d="M20.588 86.6942L15.83 84.5314L15.6447 85.0258L20.3409 87.1885L20.588 86.6942Z" fill="black"/>
<path d="M20.4644 90.4017L15.6446 88.4861L15.4592 88.9805L20.279 90.896L20.4644 90.4017Z" fill="black"/>
<path d="M20.5879 94.1092L15.6446 92.379L15.521 92.8733L20.4026 94.6035L20.5879 94.1092Z" fill="black"/>
<path d="M20.8969 97.7549L15.8918 96.3337L15.7682 96.828L20.7733 98.311L20.8969 97.7549Z" fill="black"/>
<path d="M21.3914 101.401L16.3245 100.227L16.2009 100.783L21.2679 101.957L21.3914 101.401Z" fill="black"/>
<path d="M22.0712 105.046L16.9424 104.119L16.8806 104.676L22.0093 105.602L22.0712 105.046Z" fill="black"/>
<path d="M22.9361 108.63L17.8074 108.012L17.7456 108.507L22.8743 109.186L22.9361 108.63Z" fill="black"/>
<path d="M24.0485 112.152L18.8579 111.782L18.7961 112.338L23.9866 112.709L24.0485 112.152Z" fill="black"/>
<path d="M25.2843 115.613L20.0938 115.551V116.045L25.2843 116.169V115.613Z" fill="black"/>
<path d="M26.7054 119.011L21.5149 119.197V119.753L26.7054 119.567V119.011Z" fill="black"/>
<path d="M28.292 122.381L23.1207 122.829L23.1687 123.383L28.34 122.935L28.292 122.381Z" fill="black"/>
<path d="M30.104 125.623L24.9135 126.303L24.9753 126.859L30.1658 126.117L30.104 125.623Z" fill="black"/>
<path d="M32.0196 128.713L26.8909 129.701L27.0145 130.257L32.1432 129.269L32.0196 128.713Z" fill="black"/>
<path d="M34.1133 131.749L29.0774 133.007L29.2123 133.547L34.2481 132.288L34.1133 131.749Z" fill="black"/>
<path d="M36.3436 134.698L31.3778 136.208L31.5396 136.74L36.5054 135.23L36.3436 134.698Z" fill="black"/>
<path d="M38.7547 137.487L33.8732 139.217L34.0585 139.773L38.9401 137.981L38.7547 137.487Z" fill="black"/>
<path d="M41.3501 140.144L36.5303 142.183L36.7775 142.678L41.5354 140.639L41.3501 140.144Z" fill="black"/>
<path d="M44.0072 142.678L39.3728 144.964L39.5582 145.397L44.2543 143.172L44.0072 142.678Z" fill="black"/>
<path d="M46.8497 145.026L42.2771 147.559L42.5242 148.054L47.0969 145.52L46.8497 145.026Z" fill="black"/>
<path d="M49.7539 147.25L45.3667 150.031L45.6757 150.463L50.0629 147.745L49.7539 147.25Z" fill="black"/>
<path d="M52.8435 149.351L48.5798 152.317L48.8888 152.75L53.1525 149.784L52.8435 149.351Z" fill="black"/>
<path d="M55.9948 151.267L51.8547 154.48L52.2255 154.912L56.3037 151.699L55.9948 151.267Z" fill="black"/>
<path d="M59.2081 152.997L55.3152 156.457L55.6241 156.828L59.5788 153.429L59.2081 152.997Z" fill="black"/>
<path d="M62.5694 154.61L58.8348 158.215L59.2211 158.615L62.9557 155.01L62.5694 154.61Z" fill="black"/>
<path d="M65.9833 156.018L62.447 159.817L62.8541 160.196L66.3904 156.397L65.9833 156.018Z" fill="black"/>
<path d="M66.1287 161.153L66.4994 161.524L69.8362 157.57L69.4654 157.199L66.1287 161.153Z" fill="black"/>
<path d="M69.8979 162.389L70.2687 162.698L73.4201 158.558L72.9875 158.249L69.8979 162.389Z" fill="black"/>
<path d="M76.5567 159.099L73.6417 163.393L74.1019 163.706L77.0168 159.411L76.5567 159.099Z" fill="black"/>
<path d="M77.5602 164.181L77.9927 164.49L80.6498 159.979L80.2172 159.732L77.5602 164.181Z" fill="black"/>
<path d="M83.8875 160.237L81.4542 164.822L81.9454 165.082L84.3788 160.498L83.8875 160.237Z" fill="black"/>
<path d="M85.3459 165.17L85.8403 165.417L88.0648 160.721L87.5705 160.474L85.3459 165.17Z" fill="black"/>
<path d="M89.3007 165.355L89.795 165.603L91.7106 160.783L91.2162 160.536L89.3007 165.355Z" fill="black"/>
<path d="M93.2555 165.355L93.7498 165.541L95.4182 160.597L94.9238 160.474L93.2555 165.355Z" fill="black"/>
<path d="M98.5928 160.168L97.1617 165.157L97.6963 165.311L99.1273 160.321L98.5928 160.168Z" fill="black"/>
<path d="M101.103 164.737L101.597 164.799L102.771 159.732L102.277 159.67L101.103 164.737Z" fill="black"/>
<path d="M104.996 164.058L105.49 164.181L106.417 159.053L105.861 158.929L104.996 164.058Z" fill="black"/>
<path d="M108.827 163.254L109.383 163.316L110.001 158.126L109.445 158.064L108.827 163.254Z" fill="black"/>
<path d="M112.998 156.997L112.652 162.176L113.207 162.213L113.553 157.034L112.998 156.997Z" fill="black"/>
<path d="M116.366 160.968H116.922L116.984 155.778H116.489L116.366 160.968Z" fill="black"/>
<path d="M119.888 154.356L120.073 159.547H120.568L120.382 154.295L119.888 154.356Z" fill="black"/>
<path d="M123.163 152.75L123.657 157.94L124.151 157.878L123.719 152.688L123.163 152.75Z" fill="black"/>
<path d="M126.438 150.958L127.117 156.087L127.673 156.025L126.932 150.896L126.438 150.958Z" fill="black"/>
<path d="M129.589 149.042L130.578 154.109L131.072 154.047L130.083 148.919L129.589 149.042Z" fill="black"/>
<path d="M132.617 146.941L133.853 151.946L134.347 151.823L133.111 146.818L132.617 146.941Z" fill="black"/>
<path d="M135.521 144.655L137.004 149.66L137.56 149.475L136.015 144.531L135.521 144.655Z" fill="black"/>
<path d="M138.302 142.245L140.094 147.127L140.588 146.941L138.796 142.06L138.302 142.245Z" fill="black"/>
<path d="M140.959 139.712L142.998 144.47L143.492 144.284L141.453 139.526L140.959 139.712Z" fill="black"/>
<path d="M143.492 137.055L145.779 141.689L146.273 141.442L143.987 136.807L143.492 137.055Z" fill="black"/>
<path d="M145.902 134.212L148.436 138.723L148.868 138.476L146.335 133.965L145.902 134.212Z" fill="black"/>
<path d="M148.577 131.027L148.105 131.322L150.856 135.724L151.328 135.429L148.577 131.027Z" fill="black"/>
<path d="M150.166 128.218L153.194 132.482L153.626 132.173L150.66 127.909L150.166 128.218Z" fill="black"/>
<path d="M152.529 124.722L152.09 125.064L155.281 129.158L155.719 128.816L152.529 124.722Z" fill="black"/>
<path d="M153.873 121.792L157.272 125.747L157.643 125.376L154.244 121.483L153.873 121.792Z" fill="black"/>
<path d="M155.418 118.517L159.064 122.225L159.435 121.854L155.789 118.146L155.418 118.517Z" fill="black"/>
<path d="M156.839 115.057L160.609 118.641L160.979 118.208L157.21 114.686L156.839 115.057Z" fill="black"/>
<path d="M158.014 111.596L162.03 114.933L162.401 114.501L158.384 111.164L158.014 111.596Z" fill="black"/>
<path d="M159.379 107.588L159.045 108.032L163.189 111.157L163.524 110.713L159.379 107.588Z" fill="black"/>
<path d="M159.929 104.49L164.254 107.333L164.502 106.9L160.238 103.996L159.929 104.49Z" fill="black"/>
<path d="M160.547 100.844L165.058 103.502L165.305 103.069L160.856 100.35L160.547 100.844Z" fill="black"/>
<path d="M161.29 96.6819L161.029 97.173L165.612 99.6099L165.873 99.1189L161.29 96.6819Z" fill="black"/>
<path d="M161.288 93.4912L166.046 95.6539L166.232 95.2214L161.536 92.9969L161.288 93.4912Z" fill="black"/>
<path d="M161.412 89.7837L166.232 91.7611L166.417 91.2667L161.597 89.2894L161.412 89.7837Z" fill="black"/>
<path d="M161.288 86.138L166.232 87.8064L166.355 87.3121L161.474 85.5819L161.288 86.138Z" fill="black"/>
<path d="M160.979 82.4305L165.985 83.8517L166.108 83.3574L161.103 81.9362L160.979 82.4305Z" fill="black"/>
<path d="M160.485 78.7848L165.552 79.9588L165.675 79.4027L160.609 78.2904L160.485 78.7848Z" fill="black"/>
<path d="M159.907 74.5701L159.811 75.1178L164.923 76.0179L165.019 75.4702L159.907 74.5701Z" fill="black"/>
<path d="M158.94 71.5551L164.069 72.2348L164.131 71.6787L159.002 71.0608L158.94 71.5551Z" fill="black"/>
<path d="M157.828 68.033L163.019 68.4037L163.08 67.8476L157.89 67.5386L157.828 68.033Z" fill="black"/>
<path d="M156.592 64.5726L161.783 64.6962V64.14L156.592 64.0164V64.5726Z" fill="black"/>
<path d="M155.171 61.1741L160.362 60.9887V60.4326L155.171 60.6179V61.1741Z" fill="black"/>
<path d="M153.564 57.8373L158.755 57.4048L158.693 56.8486L153.503 57.343L153.564 57.8373Z" fill="black"/>
<path d="M151.772 54.6241L156.963 53.8826L156.901 53.3882L151.711 54.068L151.772 54.6241Z" fill="black"/>
<path d="M149.857 51.4727L154.985 50.4841L154.862 49.9279L149.733 50.9784L149.857 51.4727Z" fill="black"/>
<path d="M147.756 48.4449L152.823 47.2091L152.699 46.6529L147.632 47.9506L147.756 48.4449Z" fill="black"/>
<path d="M145.47 45.5407L150.475 43.9959L150.29 43.5015L145.346 45.0463L145.47 45.5407Z" fill="black"/>
<path d="M143.121 42.7601L148.003 40.9681L147.818 40.4738L142.936 42.2039L143.121 42.7601Z" fill="black"/>
<path d="M140.526 40.0412L145.346 38.0639L145.099 37.5695L140.341 39.5469L140.526 40.0412Z" fill="black"/>
<path d="M137.869 37.5695L142.504 35.2832L142.318 34.7889L137.622 37.0752L137.869 37.5695Z" fill="black"/>
<path d="M135.027 35.1596L139.599 32.6261L139.352 32.1936L134.78 34.6653L135.027 35.1596Z" fill="black"/>
<path d="M132.123 32.9351L136.51 30.1545L136.201 29.7219L131.814 32.5026L132.123 32.9351Z" fill="black"/>
<path d="M129.033 30.8342L133.297 27.8682L132.988 27.4356L128.786 30.4016L129.033 30.8342Z" fill="black"/>
<path d="M125.881 28.9187L130.022 25.7673L129.651 25.3347L125.573 28.4861L125.881 28.9187Z" fill="black"/>
<path d="M122.668 27.1885L126.561 23.7899L126.252 23.3574L122.298 26.8177L122.668 27.1885Z" fill="black"/>
<path d="M119.332 25.6437L123.039 21.998L122.668 21.6272L118.961 25.2111L119.332 25.6437Z" fill="black"/>
<path d="M119.06 20.0805L115.523 23.8789L115.93 24.2579L119.467 20.4595L119.06 20.0805Z" fill="black"/>
<path d="M115.748 19.0319L115.377 18.6612L111.978 22.6777L112.411 22.9866L115.748 19.0319Z" fill="black"/>
<path d="M111.978 17.7961L111.608 17.4872L108.456 21.6272L108.889 21.998L111.978 17.7961Z" fill="black"/>
<path d="M108.209 16.8074L107.777 16.4984L104.872 20.8239L105.305 21.1328L108.209 16.8074Z" fill="black"/>
<path d="M104.316 16.0041L103.884 15.757L101.227 20.206L101.659 20.4532L104.316 16.0041Z" fill="black"/>
<path d="M100.423 15.3862L99.9908 15.139L97.5192 19.7734L98.0135 20.0206L100.423 15.3862Z" fill="black"/>
<path d="M31.7105 65.5613L26.5818 101.462H31.2162L32.0813 94.9743H38.3223L39.1874 101.462H44.3161L39.1874 65.5613H31.7105ZM32.761 90.0927L35.1709 71.9259L37.5807 90.0927H32.761Z" fill="black"/>
<path d="M61.6796 79.0937V74.4593C61.6796 68.7127 59.2079 65.6231 54.141 65.6231H46.6642V101.524H51.7311V88.0536H54.141C59.2079 87.9918 61.6796 84.8404 61.6796 79.0937ZM56.6127 79.4645C56.6127 81.9979 55.7476 82.863 54.141 82.863H51.7311V70.69H54.141C55.7476 70.69 56.6127 71.4933 56.6127 74.0886V79.4645Z" fill="black"/>
<path d="M78.9815 92.8733V74.2121C78.9815 68.4655 76.2627 65.1905 71.3193 65.1905C66.376 65.1905 63.6571 68.4655 63.6571 74.2121V92.8733C63.6571 98.62 66.376 101.895 71.3193 101.895C76.2627 101.895 78.9815 98.5582 78.9815 92.8733ZM73.9146 93.1823C73.9146 95.7158 72.9259 96.7044 71.3193 96.7044C69.7127 96.7044 68.7241 95.7158 68.7241 93.1823V73.8414C68.7241 71.3079 69.7127 70.3193 71.3193 70.3193C72.9259 70.3193 73.9146 71.3079 73.9146 73.8414V93.1823Z" fill="black"/>
<path d="M81.4532 90.6488V92.8733C81.4532 98.62 84.0485 101.895 88.9919 101.895C93.9352 101.895 96.5305 98.62 96.5305 92.8733C96.5305 82.6159 86.6438 81.2564 86.6438 73.8414C86.6438 71.3079 87.5707 70.3193 89.1772 70.3193C90.7838 70.3193 91.7107 71.3079 91.7107 73.8414V75.3244H96.4687V74.2121C96.4687 68.4655 93.9352 65.1905 88.9919 65.1905C84.0485 65.1905 81.5151 68.4655 81.5151 74.2121C81.5151 84.4696 91.4018 85.8291 91.4018 93.2441C91.4018 95.7776 90.4131 96.7044 88.8065 96.7044C87.1999 96.7044 86.2112 95.7776 86.2112 93.2441V90.7106H81.4532V90.6488Z" fill="black"/>
<path d="M108.333 70.69H113.647V65.5613H98.0134V70.69H103.266V101.462H108.333V70.69Z" fill="black"/>
<path d="M120.938 65.5613H115.871V101.462H120.938V65.5613Z" fill="black"/>
<path d="M137.993 96.3337H129.651V65.5613H124.584V101.462H137.993V96.3337Z" fill="black"/>
<path d="M150.598 94.9743L151.463 101.462H156.592L151.463 65.5613H144.048L138.92 101.462H143.554L144.419 94.9743H150.598ZM147.509 71.9259L149.919 90.0927H145.037L147.509 71.9259Z" fill="black"/>
<path d="M55.068 111.349C55.6241 110.917 55.8713 110.299 55.8713 109.495C55.8713 108.816 55.6242 108.198 55.1298 107.642C54.8827 107.333 54.4501 107.086 53.9558 106.962C53.3996 106.777 52.7817 106.715 52.0402 106.715H47.8384V117.467H52.5346C54.0176 117.467 55.068 117.158 55.6242 116.478C56.1185 115.922 56.3657 115.242 56.3657 114.501C56.3657 113.821 56.1803 113.265 55.7477 112.77C55.377 112.338 54.8208 112.029 54.1411 111.843C54.3265 111.782 54.4501 111.72 54.5119 111.658C54.7591 111.535 54.8826 111.473 55.068 111.349ZM49.6921 108.26H52.0402C52.7199 108.26 53.2142 108.383 53.5232 108.569C53.8322 108.816 54.0176 109.186 54.0176 109.681C54.0176 110.546 53.3379 111.04 52.0402 111.04H49.7539V108.26H49.6921ZM54.5737 114.192C54.5737 114.748 54.3883 115.18 54.0176 115.366C53.6468 115.551 53.1525 115.675 52.4728 115.675H49.6303V112.709H52.2256C53.8322 112.77 54.5737 113.203 54.5737 114.192Z" fill="black"/>
<path d="M71.1957 113.45C72.7405 113.018 73.5438 111.843 73.5438 110.113C73.5438 108.877 73.1731 108.012 72.4933 107.456C71.8136 106.9 70.5778 106.653 68.9712 106.653H64.8929V117.405H66.6849V113.759H69.0948L71.6901 117.405H73.9764L71.1957 113.45ZM68.9712 112.091H66.7467V108.26H69.033C70.0217 108.26 70.7014 108.383 71.0721 108.63C71.4429 108.877 71.6283 109.372 71.6283 110.051C71.6283 110.731 71.4429 111.287 71.0721 111.596C70.7014 111.905 70.0217 112.091 68.9712 112.091Z" fill="black"/>
<path d="M92.2666 117.343L87.5086 106.591H85.5931L80.8351 117.343H82.7507L83.8011 114.871H89.177L90.2275 117.343H92.2666ZM84.5426 113.203L86.52 108.754L88.4973 113.203H84.5426Z" fill="black"/>
<path d="M104.934 115.427C104.563 115.675 104.131 115.798 103.513 115.798C102.339 115.798 101.227 115.304 100.114 114.377L99.0021 115.736C100.3 116.91 101.783 117.467 103.513 117.467C104.687 117.467 105.614 117.158 106.294 116.601C106.973 116.045 107.344 115.242 107.344 114.315C107.344 113.388 107.035 112.647 106.479 112.152C105.923 111.658 105.058 111.287 104.007 111.04C102.895 110.793 102.153 110.546 101.844 110.299C101.536 110.052 101.35 109.743 101.35 109.31C101.35 108.877 101.536 108.569 101.844 108.321C102.153 108.136 102.648 108.012 103.142 108.012C103.698 108.012 104.193 108.074 104.749 108.26C105.305 108.445 105.737 108.692 106.046 108.939L107.035 107.58C106.541 107.147 105.985 106.838 105.305 106.653C104.625 106.406 103.945 106.344 103.266 106.344C102.215 106.344 101.288 106.591 100.547 107.147C99.8054 107.703 99.4346 108.445 99.4346 109.434C99.4346 110.422 99.7436 111.164 100.362 111.658C100.67 111.905 101.041 112.152 101.474 112.276C101.906 112.461 102.462 112.585 103.266 112.77C104.069 112.956 104.625 113.141 104.934 113.388C105.243 113.635 105.428 113.944 105.428 114.377C105.428 114.809 105.305 115.18 104.934 115.427Z" fill="black"/>
<path d="M117.54 106.591H115.748V117.343H117.54V106.591Z" fill="black"/>
<path d="M126.747 106.591V117.343H133.482V115.613H128.539V106.591H126.747Z" fill="black"/>
<path d="M55.8095 125.932L57.8486 127.786C59.1462 128.96 59.1462 130.258 57.9104 131.555L54.1411 135.695C52.967 136.993 51.6694 137.178 50.3718 136.004L48.3326 134.15L55.8095 125.932ZM56.0566 128.28L50.7425 134.15L51.484 134.83C51.9166 135.201 52.3491 135.201 52.8434 134.645L56.7363 130.381C57.2925 129.763 57.2307 129.331 56.7981 128.96L56.0566 128.28Z" fill="black"/>
<path d="M59.517 135.077L61.4944 136.437L60.5675 137.734L58.5902 136.375L56.7364 139.032L59.2081 140.762L58.2812 142.06L54.3883 139.341L60.7529 130.258L64.6458 132.976L63.7189 134.274L61.2472 132.544L59.517 135.077Z" fill="black"/>
<path d="M68.2298 135.016L70.7633 136.128C72.3699 136.869 72.7406 138.105 71.9991 139.712L69.7128 144.84C68.9713 146.447 67.7973 147.003 66.1907 146.262L63.6572 145.149L68.2298 135.016ZM69.1567 137.178L65.8817 144.408L66.7468 144.84C67.2412 145.088 67.6737 144.964 67.9827 144.223L70.3308 138.97C70.6397 138.229 70.4544 137.858 69.96 137.611L69.1567 137.178Z" fill="black"/>
<path d="M73.2965 140.144C73.7908 138.414 75.0267 137.734 76.6333 138.229C78.3017 138.723 78.8578 139.959 78.3634 141.689L76.6951 147.189C76.2007 148.919 74.9649 149.598 73.3583 149.104C71.6899 148.61 71.1338 147.374 71.6281 145.644L73.2965 140.144ZM73.2965 146.262C73.0493 147.003 73.2965 147.436 73.8526 147.559C74.4088 147.745 74.7795 147.559 75.0267 146.756L76.7569 141.009C77.004 140.268 76.7569 139.835 76.2007 139.712C75.6446 139.588 75.2739 139.712 75.0267 140.515L73.2965 146.262Z" fill="black"/>
<path d="M84.172 147.065L83.9248 148.548C83.6159 150.278 82.5654 151.143 80.897 150.896C79.2286 150.587 78.4871 149.475 78.7961 147.745L79.723 142.06C80.0319 140.33 81.0824 139.465 82.7508 139.712C84.4192 140.021 85.1607 141.133 84.8517 142.863L84.6663 143.914L83.0598 143.666L83.2451 142.492C83.3687 141.689 83.0597 141.38 82.5036 141.256C81.9475 141.195 81.5767 141.38 81.4531 142.183L80.4645 148.115C80.3409 148.919 80.6499 149.228 81.206 149.351C81.7621 149.413 82.1328 149.228 82.2564 148.424L82.5036 146.88L84.172 147.065Z" fill="black"/>
<path d="M88.1267 140.391L87.8177 148.919C87.8177 149.722 88.1267 150.031 88.6828 150.031C89.2389 150.031 89.6097 149.784 89.6097 148.98L89.9186 140.453L91.587 140.515L91.2781 148.98C91.2163 150.772 90.2894 151.761 88.5592 151.699C86.829 151.638 86.0257 150.587 86.0875 148.795L86.3965 140.33L88.1267 140.391Z" fill="black"/>
<path d="M97.3337 147.992L97.6427 140.021L100.053 139.773L101.288 150.834L99.62 151.02L98.7549 143.11L98.446 151.143L96.7776 151.329L94.6149 143.666L95.48 151.452L93.9969 151.638L92.7611 140.577L95.171 140.33L97.3337 147.992Z" fill="black"/>
<path d="M104.131 143.481L106.417 142.863L106.788 144.408L104.502 145.026L105.305 148.177L108.209 147.436L108.642 148.98L104.069 150.216L101.227 139.465L105.799 138.229L106.17 139.773L103.266 140.515L104.131 143.481Z" fill="black"/>
<path d="M109.569 140.144L112.596 147.621L111.113 148.239L106.911 137.982L108.951 137.178L113.091 142.678L110.557 136.499L111.978 135.942L116.18 146.2L114.512 146.88L109.569 140.144Z" fill="black"/>
<path d="M112.782 135.448L117.478 132.791L118.281 134.15L116.675 135.077L121.371 143.357L119.826 144.223L115.13 135.942L113.523 136.869L112.782 135.448Z" fill="black"/>
<path d="M119.702 134.521C118.652 133.1 118.776 131.741 120.197 130.69C121.556 129.701 122.916 129.949 123.966 131.37L127.426 136.004C128.477 137.425 128.353 138.785 126.932 139.835C125.573 140.824 124.213 140.577 123.163 139.156L119.702 134.521ZM124.584 138.229C125.078 138.847 125.511 138.908 125.943 138.599C126.376 138.29 126.5 137.796 126.005 137.178L122.421 132.358C121.927 131.741 121.494 131.679 121.062 131.988C120.629 132.297 120.506 132.791 121 133.409L124.584 138.229Z" fill="black"/>
<path d="M124.893 126.674C126.129 125.5 127.426 125.623 128.662 126.921L128.909 127.168L127.735 128.28L127.426 127.971C126.87 127.415 126.438 127.415 126.067 127.786C125.696 128.157 125.634 128.589 126.191 129.207C127.797 130.875 130.516 128.836 132.741 131.123C133.976 132.42 134.038 133.78 132.802 134.954C131.566 136.128 130.207 136.004 128.971 134.707L128.477 134.212L129.651 133.1L130.207 133.656C130.763 134.212 131.196 134.212 131.628 133.841C131.999 133.471 132.061 133.038 131.566 132.42C129.96 130.752 127.241 132.791 125.017 130.505C123.781 129.207 123.719 127.848 124.893 126.674Z" fill="black"/>
<path d="M52.6582 44.2431L54.8827 42.5747C56.3039 41.5243 57.5398 41.7714 58.5902 43.1926L61.927 47.7034C62.9775 49.1247 62.8539 50.4223 61.4944 51.4728L59.27 53.1411L52.6582 44.2431ZM55.0063 44.4903L59.7643 50.8548L60.5676 50.2369C61.0001 49.928 61.1237 49.4954 60.6293 48.8157L57.169 44.1813C56.6747 43.5634 56.2421 43.5016 55.8096 43.8723L55.0063 44.4903Z" fill="black"/>
<path d="M62.9773 42.8837L65.0783 41.7096L65.8815 43.0691L63.7806 44.2431L65.3872 47.0855L67.9825 45.6025L68.7858 46.962L64.6457 49.3101L59.1462 39.6705L63.2863 37.3224L64.0896 38.6818L61.4943 40.1648L62.9773 42.8837Z" fill="black"/>
<path d="M67.6735 35.1596C69.2183 34.4799 70.4541 35.0978 71.1338 36.7662L71.2574 37.0752L69.7126 37.6931L69.5272 37.2606C69.2183 36.5191 68.7857 36.3955 68.2914 36.5809C67.7971 36.7662 67.6117 37.1988 67.9207 37.9403C68.7858 40.0412 72.1225 39.1143 73.2965 42.0803C73.9763 43.7487 73.5437 44.9846 71.9371 45.6643C70.3306 46.344 69.1565 45.7261 68.4768 44.0577L68.2296 43.4398L69.7744 42.8218L70.0834 43.5633C70.3923 44.3049 70.8249 44.4284 71.3192 44.2431C71.8136 44.0577 72.0607 43.6251 71.7517 42.8836C70.8867 40.7827 67.5499 41.7096 66.3759 38.7436C65.6962 37.0752 66.1287 35.8394 67.6735 35.1596Z" fill="black"/>
<path d="M78.2399 34.7889L78.6107 36.2101C79.105 37.9403 78.4871 39.0526 76.8187 39.5469L76.0154 39.7941L77.1277 43.8106L75.4593 44.3049L72.4933 33.6149L74.965 32.9352C76.6333 32.379 77.7456 33.0587 78.2399 34.7889ZM74.5942 34.5418L75.5829 38.1875L76.3862 37.9403C76.9423 37.8167 77.1277 37.446 76.9423 36.7045L76.5098 35.0979C76.3244 34.3564 75.9536 34.171 75.3975 34.2946L74.5942 34.5418Z" fill="black"/>
<path d="M86.7056 41.895L84.9755 42.1422L84.3575 40.1648L82.2566 40.4738V42.5129L80.65 42.7601L80.7736 31.5139L83.3071 31.1432L86.7056 41.895ZM82.2566 38.9908L83.925 38.7436L82.2566 33.3059V38.9908Z" fill="black"/>
<path d="M92.5757 37.5696L92.6375 39.0526C92.6993 40.8445 91.8342 41.895 90.104 41.895C88.3739 41.9568 87.5088 40.9681 87.447 39.1762L87.3234 33.4295C87.2616 31.6376 88.1267 30.5871 89.8569 30.5871C91.5871 30.5253 92.4522 31.514 92.5139 33.3059V34.3564L90.8456 34.4182V33.2441C90.8456 32.4408 90.4748 32.1319 89.9187 32.1937C89.3625 32.1937 88.9918 32.5026 89.0536 33.3059L89.1772 39.2998C89.1772 40.1031 89.5479 40.3502 90.104 40.3502C90.6602 40.3502 91.0309 40.0413 90.9691 39.238L90.9073 37.6314L92.5757 37.5696Z" fill="black"/>
<path d="M95.5418 42.0186L93.8116 41.8332L95.0475 30.7725L96.7777 30.9578L96.2215 35.7158L98.1989 35.963L98.755 31.205L100.547 31.3904L99.3111 42.4511L97.5192 42.2658L98.0753 37.5078L96.098 37.2606L95.5418 42.0186Z" fill="black"/>
<path d="M106.046 44.0577L104.316 43.6252L104.501 41.586L102.401 41.0299L101.597 42.8837L100.052 42.5129L104.501 32.1937L106.973 32.8116L106.046 44.0577ZM103.018 39.6705L104.625 40.103L105.181 34.48L103.018 39.6705Z" fill="black"/>
<path d="M111.299 37.4459L108.271 44.9228L106.788 44.3049L110.928 33.9856L112.967 34.7889L112.164 41.6478L114.635 35.4686L116.057 36.0247L111.917 46.344L110.248 45.6643L111.299 37.4459Z" fill="black"/>
<path d="M118.158 37.0752L122.854 39.7323L122.05 41.0917L120.444 40.2266L115.809 48.5067L114.265 47.6417L118.899 39.3615L117.292 38.4964L118.158 37.0752Z" fill="black"/>
<path d="M123.348 45.7261L125.264 47.1473L124.337 48.4449L122.421 47.0237L120.506 49.619L122.916 51.4109L121.989 52.7086L118.158 49.9279L124.708 40.9681L128.539 43.7487L127.612 45.0464L125.202 43.2544L123.348 45.7261Z" fill="black"/>
</svg>
