<svg width="190" height="50" viewBox="0 0 190 50" fill="none" xmlns="http://www.w3.org/2000/svg">
<g clip-path="url(#clip0_15_385)">
<path d="M16.2852 13.6525H7.50893C7.25028 13.6525 7.00223 13.5498 6.81933 13.3669C6.63644 13.184 6.53369 12.9359 6.53369 12.6773C6.53369 12.4186 6.63644 12.1706 6.81933 11.9877C7.00223 11.8048 7.25028 11.702 7.50893 11.702H16.2852C16.5437 11.7025 16.7915 11.8054 16.9743 11.9882C17.1571 12.171 17.26 12.4188 17.2605 12.6773C17.3578 13.2622 16.8702 13.6525 16.2852 13.6525Z" fill="#6F6F6F"/>
<path d="M16.2852 8.97187H7.50893C7.25028 8.97187 7.00223 8.86913 6.81933 8.68623C6.63644 8.50334 6.53369 8.25528 6.53369 7.99663C6.53369 7.73798 6.63644 7.48993 6.81933 7.30703C7.00223 7.12414 7.25028 7.02139 7.50893 7.02139H16.2852C16.5437 7.02186 16.7915 7.12475 16.9743 7.30755C17.1571 7.49034 17.26 7.73813 17.2605 7.99663C17.2688 8.12688 17.2493 8.25741 17.2033 8.37952C17.1572 8.50164 17.0857 8.61254 16.9934 8.70482C16.9011 8.79711 16.7902 8.86866 16.6681 8.91471C16.546 8.96076 16.4155 8.98025 16.2852 8.97187Z" fill="#6F6F6F"/>
<path d="M45.0532 20.2722H27.2077C26.9492 20.2718 26.7014 20.1689 26.5186 19.9861C26.3358 19.8033 26.2329 19.5555 26.2324 19.297C26.2504 19.0443 26.3589 18.8065 26.538 18.6274C26.7172 18.4482 26.9549 18.3397 27.2077 18.3217H45.0532C45.3118 18.3217 45.5599 18.4245 45.7428 18.6074C45.9256 18.7903 46.0284 19.0383 46.0284 19.297C46.0284 19.5556 45.9256 19.8037 45.7428 19.9866C45.5599 20.1695 45.3118 20.2722 45.0532 20.2722Z" fill="#2E7EC6"/>
<path d="M45.0532 15.5916H27.2077C26.949 15.5916 26.701 15.4888 26.5181 15.306C26.3352 15.1231 26.2324 14.875 26.2324 14.6164C26.2324 14.3577 26.3352 14.1096 26.5181 13.9268C26.701 13.7439 26.949 13.6411 27.2077 13.6411H45.0532C45.3117 13.6416 45.5595 13.7445 45.7422 13.9273C45.925 14.1101 46.0279 14.3578 46.0284 14.6164C46.0368 14.7466 46.0173 14.8771 45.9712 14.9992C45.9252 15.1214 45.8536 15.2323 45.7613 15.3245C45.6691 15.4168 45.5582 15.4884 45.436 15.5344C45.3139 15.5805 45.1834 15.6 45.0532 15.5916Z" fill="#2E7EC6"/>
<path d="M46.6133 49.9907H24.6721C23.9549 49.9922 23.2444 49.8521 22.5815 49.5785C21.9185 49.3049 21.316 48.903 20.8087 48.3961C20.3013 47.8891 19.899 47.287 19.6248 46.6243C19.3507 45.9615 19.21 45.2512 19.2109 44.5339H22.1367C22.1486 45.2025 22.4196 45.8403 22.8926 46.3129C23.3656 46.7856 24.0036 47.0562 24.6721 47.0676H46.6133C47.2818 47.0562 47.9198 46.7856 48.3928 46.3129C48.8658 45.8403 49.1368 45.2025 49.1487 44.5339V12.5755C49.1368 11.907 48.8658 11.2692 48.3928 10.7965C47.9198 10.3239 47.2818 10.0533 46.6133 10.0418H24.6721C24.0036 10.0533 23.3656 10.3239 22.8926 10.7965C22.4196 11.2692 22.1486 11.907 22.1367 12.5755V22.2227H19.2109V12.5755C19.2101 11.8584 19.3509 11.1481 19.6251 10.4855C19.8993 9.82281 20.3017 9.2208 20.809 8.71394C21.3163 8.20708 21.9187 7.80535 22.5817 7.53176C23.2446 7.25817 23.955 7.11811 24.6721 7.11961H46.6133C47.3304 7.11811 48.0408 7.25817 48.7037 7.53176C49.3666 7.80535 49.969 8.20708 50.4764 8.71394C50.9837 9.2208 51.3861 9.82281 51.6603 10.4855C51.9345 11.1481 52.0753 11.8584 52.0744 12.5755V44.6322C52.0557 46.0653 51.4711 47.4329 50.448 48.4368C49.425 49.4406 48.0465 49.9992 46.6133 49.9907Z" fill="#2E7EC6"/>
<path d="M25.5492 21.8254L20.4783 29.2371L15.3101 21.8254H25.5492Z" fill="#2E7EC6"/>
<path d="M27.4023 42.4203H5.46118C4.74368 42.4215 4.03301 42.281 3.36991 42.007C2.70681 41.7329 2.10432 41.3307 1.59697 40.8234C1.08962 40.316 0.687402 39.7135 0.413362 39.0504C0.139321 38.3873 -0.00114795 37.6767 7.06537e-06 36.9592V5.46118C-0.00114795 4.74368 0.139321 4.03301 0.413362 3.36991C0.687402 2.70681 1.08962 2.10432 1.59697 1.59697C2.10432 1.08962 2.70681 0.687402 3.36991 0.413362C4.03301 0.139321 4.74368 -0.00114795 5.46118 7.06537e-06H27.4023C28.1198 -0.00114795 28.8305 0.139321 29.4936 0.413362C30.1567 0.687402 30.7592 1.08962 31.2665 1.59697C31.7739 2.10432 32.1761 2.70681 32.4502 3.36991C32.7242 4.03301 32.8647 4.74368 32.8635 5.46118H29.9378C29.9259 4.79247 29.6549 4.15447 29.182 3.68155C28.709 3.20862 28.0711 2.93766 27.4023 2.92573H5.46118C4.79247 2.93766 4.15447 3.20862 3.68155 3.68155C3.20862 4.15447 2.93766 4.79247 2.92573 5.46118V36.9592C2.93766 37.6279 3.20862 38.2659 3.68155 38.7388C4.15447 39.2117 4.79247 39.4827 5.46118 39.4946H27.4023C28.0711 39.4827 28.709 39.2117 29.182 38.7388C29.6549 38.2659 29.9259 37.6279 29.9378 36.9592V29.4502H32.8635V36.9592C32.8493 38.4032 32.2694 39.784 31.2483 40.8051C30.2272 41.8263 28.8463 42.4062 27.4023 42.4203Z" fill="#6F6F6F"/>
<path d="M26.5244 29.6273L31.5953 22.2157L36.7636 29.6273H26.5244Z" fill="#6F6F6F"/>
<path d="M85.5905 33.3564H87.8777V19.1786H91.1227C91.191 19.1693 91.2605 19.1759 91.3258 19.198C91.3911 19.22 91.4504 19.2568 91.4991 19.3055C91.5479 19.3543 91.5847 19.4136 91.6067 19.4789C91.6287 19.5442 91.6353 19.6137 91.6261 19.682V20.7107H93.6625V18.584C93.6625 17.5552 93.3196 17.2123 92.2908 17.2123H81.1773C80.1486 17.2123 79.8057 17.5552 79.8057 18.584V20.7107H81.8412V19.682C81.8319 19.6137 81.8386 19.5442 81.8606 19.4789C81.8826 19.4136 81.9194 19.3543 81.9682 19.3055C82.0169 19.2568 82.0762 19.22 82.1415 19.198C82.2068 19.1759 82.2763 19.1693 82.3446 19.1786H85.5896L85.5905 33.3564ZM94.9201 33.3564H97.1381V28.6205C97.1256 27.919 97.2181 27.2196 97.4126 26.5455C97.5836 25.8008 97.9931 25.1322 98.5788 24.6415C99.1645 24.1508 99.8944 23.8647 100.658 23.8268C100.88 23.827 101.102 23.8499 101.321 23.8952V21.7026C101.124 21.6742 100.925 21.659 100.726 21.657C99.8728 21.7005 99.0562 22.0175 98.3973 22.5612C97.7383 23.1049 97.2719 23.8463 97.0671 24.6757H97.0215C97.0526 24.41 97.0678 24.1426 97.0671 23.875V23.1436C97.0671 22.206 96.5865 21.7947 95.5805 21.7947H93.4757V23.6926H94.4132C94.4815 23.6833 94.551 23.6899 94.6163 23.712C94.6816 23.734 94.741 23.7708 94.7897 23.8195C94.8384 23.8682 94.8752 23.9276 94.8973 23.9929C94.9193 24.0582 94.9259 24.1277 94.9166 24.196L94.9201 33.3564ZM101.963 30.1115C101.963 32.4206 103.907 33.6327 105.897 33.6327C106.667 33.6519 107.426 33.4457 108.08 33.0395C108.734 32.6333 109.256 32.0448 109.58 31.3463H109.626C109.595 31.5736 109.58 31.8027 109.58 32.0321C109.58 32.8556 109.992 33.3582 111.021 33.3582H113.102V31.4568H112.161C112.093 31.4661 112.024 31.4594 111.958 31.4374C111.893 31.4154 111.834 31.3786 111.785 31.3299C111.736 31.2811 111.699 31.2218 111.677 31.1565C111.655 31.0912 111.649 31.0217 111.658 30.9534V26.0386C111.658 23.4777 110.652 21.5114 106.902 21.5114C105.781 21.5114 102.9 21.7859 102.9 23.6838V24.8239H104.981V24.1609C104.981 23.4067 106.33 23.269 106.879 23.269C108.686 23.269 109.44 24.0004 109.44 26.036V26.15H108.937C106.994 26.1535 101.963 26.3815 101.963 30.1088V30.1115ZM104.204 29.9974C104.204 27.8707 107.223 27.7795 108.892 27.7795H109.464V28.168C109.464 29.8826 108.252 31.8514 106.377 31.8514C106.11 31.8855 105.838 31.8632 105.581 31.7862C105.323 31.7092 105.084 31.5791 104.879 31.4042C104.675 31.2294 104.509 31.0136 104.393 30.7709C104.276 30.5282 104.212 30.2638 104.204 29.9948V29.9974ZM114.403 27.5707C114.403 31.1604 116.369 33.63 119.502 33.63C120.268 33.6703 121.031 33.4943 121.702 33.1222C122.373 32.75 122.926 32.1966 123.298 31.5252H123.341C123.341 31.5252 123.318 31.7769 123.318 32.1198C123.318 32.8968 123.729 33.3547 124.736 33.3547H126.863V31.4568H125.927C125.859 31.4661 125.789 31.4594 125.724 31.4374C125.659 31.4154 125.599 31.3786 125.551 31.3299C125.502 31.2811 125.465 31.2218 125.443 31.1565C125.421 31.0912 125.414 31.0217 125.424 30.9534V18.6752C125.424 17.6464 124.985 17.2114 123.96 17.2114H121.762V19.1093H122.7C122.768 19.1 122.837 19.1067 122.903 19.1287C122.968 19.1507 123.027 19.1875 123.076 19.2362C123.125 19.285 123.162 19.3443 123.184 19.4096C123.206 19.4749 123.212 19.5444 123.203 19.6127V22.5165C123.203 22.7762 123.218 23.0357 123.249 23.2935H123.203C122.827 22.7 122.296 22.2202 121.667 21.9059C121.039 21.5916 120.337 21.4546 119.636 21.5097C116.575 21.5114 114.403 23.889 114.403 27.5707ZM119.937 31.7094C118.016 31.7094 116.667 30.086 116.667 27.5707C116.667 24.9397 118.177 23.4321 119.983 23.4321C122.201 23.4321 123.277 25.4905 123.277 27.5479C123.275 30.4982 121.652 31.7094 119.936 31.7094H119.937ZM129.289 29.1941C129.289 32.2584 130.615 33.63 133.222 33.63C134.111 33.6418 134.984 33.3982 135.738 32.928C136.492 32.4579 137.095 31.781 137.476 30.9779H137.521C137.521 30.9779 137.498 31.2752 137.498 31.641V32.0795C137.498 32.903 137.979 33.3599 138.962 33.3599H141.089V31.4568H140.15C140.082 31.4661 140.013 31.4594 139.947 31.4374C139.882 31.4154 139.823 31.3786 139.774 31.3299C139.725 31.2811 139.688 31.2218 139.666 31.1565C139.644 31.0912 139.638 31.0217 139.647 30.9534V21.7859H137.429V27.205C137.429 29.4914 136.035 31.5726 133.658 31.5726C131.828 31.5726 131.508 30.2921 131.508 28.6916V23.2032C131.508 22.2201 131.07 21.7851 130.022 21.7851H127.849V23.6829H128.786C128.854 23.6737 128.924 23.6803 128.989 23.7023C129.054 23.7243 129.114 23.7611 129.163 23.8099C129.211 23.8586 129.248 23.9179 129.27 23.9832C129.292 24.0485 129.299 24.118 129.289 24.1863L129.289 29.1941ZM142.414 27.5707C142.367 28.998 142.847 30.3927 143.762 31.489C144.677 32.5854 145.963 33.3069 147.376 33.516L146.919 35.3683C146.919 35.3683 147.125 35.3455 147.331 35.3455C148.039 35.3455 148.52 35.5744 148.52 36.0541C148.52 36.5803 148.016 36.7627 147.445 36.7627C147.112 36.7587 146.78 36.7046 146.462 36.6022V37.9292C146.88 38.0372 147.311 38.0911 147.743 38.0897C148.909 38.0897 150.075 37.5862 150.075 36.169C150.073 35.7311 149.9 35.3113 149.592 34.9998C149.284 34.6882 148.866 34.5098 148.429 34.5027L148.612 33.6335C149.488 33.6409 150.356 33.4677 151.163 33.1249C151.969 32.7821 152.696 32.277 153.299 31.641L152.334 30.0623C151.393 31.0438 150.106 31.6185 148.748 31.6638C148.204 31.683 147.663 31.5894 147.157 31.3888C146.651 31.1881 146.193 30.8849 145.81 30.4981C145.428 30.1114 145.13 29.6495 144.935 29.1417C144.74 28.634 144.652 28.0913 144.678 27.5479C144.646 27.0115 144.725 26.4743 144.91 25.9698C145.095 25.4653 145.382 25.0044 145.753 24.6159C146.125 24.2275 146.572 23.9198 147.068 23.7122C147.563 23.5046 148.096 23.4015 148.634 23.4093C149.48 23.4093 150.783 23.775 150.783 24.5985V25.2388H152.795V24.0495C152.795 22.0833 150.028 21.5114 148.634 21.5114C147.82 21.4712 147.007 21.5992 146.244 21.8873C145.482 22.1755 144.788 22.6176 144.204 23.1862C143.62 23.7548 143.16 24.4376 142.852 25.192C142.544 25.9464 142.395 26.7561 142.414 27.5707ZM154.604 27.5479C154.598 28.36 154.756 29.165 155.068 29.9147C155.381 30.6644 155.841 31.3434 156.421 31.9112C157.002 32.479 157.691 32.9238 158.448 33.2191C159.204 33.5145 160.013 33.6542 160.824 33.63C161.637 33.6546 162.447 33.5153 163.205 33.2204C163.963 32.9255 164.654 32.4811 165.236 31.9135C165.819 31.346 166.281 30.6669 166.595 29.9169C166.91 29.1669 167.07 28.3612 167.067 27.5479C167.067 26.7375 166.905 25.9353 166.589 25.1891C166.273 24.4429 165.809 23.768 165.227 23.2047C164.644 22.6413 163.954 22.2011 163.198 21.9102C162.441 21.6193 161.634 21.4837 160.824 21.5114C160.015 21.4837 159.209 21.6195 158.454 21.9107C157.699 22.2018 157.01 22.6424 156.429 23.206C155.848 23.7696 155.387 24.4447 155.073 25.1907C154.759 25.9368 154.599 26.7385 154.602 27.5479H154.604ZM156.868 27.5479C156.848 27.0157 156.935 26.4849 157.125 25.9872C157.314 25.4894 157.602 25.035 157.971 24.6509C158.34 24.2668 158.783 23.9609 159.272 23.7515C159.762 23.5421 160.289 23.4335 160.822 23.4321C161.356 23.4307 161.886 23.5372 162.378 23.7453C162.87 23.9534 163.316 24.2587 163.687 24.6431C164.059 25.0274 164.349 25.4828 164.54 25.9819C164.732 26.4811 164.82 27.0137 164.801 27.5479C164.823 28.085 164.736 28.6209 164.546 29.1238C164.357 29.6267 164.067 30.0861 163.696 30.4745C163.324 30.863 162.878 31.1726 162.385 31.3848C161.891 31.597 161.359 31.7073 160.822 31.7094C160.286 31.7049 159.757 31.5927 159.265 31.3794C158.774 31.166 158.33 30.856 157.961 30.4677C157.592 30.0794 157.305 29.6208 157.116 29.1192C156.928 28.6176 156.843 28.0832 156.865 27.5479H156.868ZM156.956 20.0933H158.465C158.465 19.4075 158.694 18.6068 159.38 18.6068C160.386 18.6068 160.751 20.1617 162.306 20.1617C163.861 20.1617 164.662 19.1558 164.662 17.2579H163.157C163.157 17.9209 162.928 18.7445 162.242 18.7445C161.236 18.7445 160.894 17.1895 159.316 17.1895C157.757 17.1895 156.958 18.1726 156.958 20.0933H156.956ZM168.708 27.5707C168.685 28.3805 168.829 29.1864 169.131 29.938C169.433 30.6896 169.887 31.3709 170.464 31.9395C171.042 32.508 171.73 32.9515 172.486 33.2423C173.242 33.5332 174.05 33.6652 174.859 33.63C176.502 33.6261 178.088 33.0248 179.321 31.9383L178.356 30.3596C177.422 31.1936 176.223 31.6712 174.971 31.7085C174.455 31.7223 173.941 31.6326 173.459 31.4448C172.978 31.2569 172.539 30.9747 172.168 30.6146C171.797 30.2546 171.502 29.824 171.3 29.3482C171.098 28.8725 170.994 28.3612 170.992 27.8444H179.43C179.43 27.8444 179.499 27.2305 179.499 26.9296C179.499 23.9338 177.76 21.5106 174.514 21.5106C171.226 21.5114 168.71 23.889 168.71 27.5707H168.708ZM171.086 26.2219C171.182 25.393 171.585 24.6301 172.216 24.084C172.847 23.5379 173.659 23.2483 174.493 23.2725C175.934 23.2725 177.146 24.3012 177.212 26.2219H171.086ZM181.127 31.5954C181.701 32.2525 182.412 32.7755 183.21 33.1273C184.008 33.4791 184.874 33.651 185.746 33.6309C188.17 33.6309 190 32.3049 190 30.2465C190 26.3824 183.685 26.8621 183.685 24.6669C183.685 23.7522 184.532 23.2953 185.835 23.2953C186.544 23.2953 187.573 23.5926 187.573 24.2784V24.8502H189.562V23.7522C189.562 21.9912 187.161 21.5114 185.767 21.5114C183.411 21.5114 181.469 22.5402 181.469 24.7564C181.469 28.4837 187.784 28.2548 187.784 30.336C187.784 31.3419 186.846 31.8225 185.772 31.8225C185.103 31.7909 184.447 31.6224 183.845 31.3275C183.243 31.0326 182.708 30.6176 182.273 30.1079L181.127 31.5954Z" fill="#6F6F6F"/>
<path d="M68.6379 27.5707C68.6148 28.3806 68.7589 29.1865 69.0611 29.9383C69.3632 30.69 69.8171 31.3714 70.3942 31.94C70.9714 32.5086 71.6595 32.9522 72.4157 33.2431C73.1718 33.5341 73.9798 33.6661 74.7893 33.6309C76.4316 33.6261 78.0162 33.0245 79.248 31.9383L78.2833 30.3596C77.3509 31.1942 76.154 31.6734 74.9033 31.7129C74.3864 31.7267 73.8719 31.6369 73.3902 31.4488C72.9085 31.2608 72.4693 30.9782 72.0985 30.6178C71.7277 30.2573 71.4328 29.8264 71.2311 29.3502C71.0295 28.8741 70.9251 28.3624 70.9243 27.8452H79.362C79.362 27.8452 79.4304 27.2313 79.4304 26.9305C79.4304 23.9346 77.6922 21.5114 74.4455 21.5114C71.1532 21.5114 68.6379 23.8899 68.6379 27.5707ZM71.0164 26.2219C71.1119 25.3931 71.5149 24.6304 72.1456 24.0843C72.7762 23.5382 73.5888 23.2486 74.4227 23.2725C75.8636 23.2725 77.0748 24.3012 77.1414 26.2219H71.0164Z" fill="#2E7EC6"/>
</g>
<defs>
<clipPath id="clip0_15_385">
<rect width="190" height="49.9898" fill="white"/>
</clipPath>
</defs>
</svg>
